<svg id="Capa_1" enable-background="new 0 0 496.99 496.99" height="512" viewBox="0 0 496.99 496.99" width="512" xmlns="http://www.w3.org/2000/svg"><g><path d="m141.766 111.197c15.29-10.922 8.959-63.456-10.864-72.416-36.445-16.473-73.611-29.343-110.859-38.35-9.176-2.219-15.794 4.4-13.576 13.575 8.761 36.229 21.176 72.382 37.007 107.869z" fill="#5e9ad8"/><path d="m74.855 183.592 57.387-57.387 57.387-57.387c-19.295-11.052-38.911-21.056-58.736-30.016-36.974 18.058-67.549 47.185-87.411 83.071 9.297 20.842 19.766 41.456 31.373 61.719z" fill="#3e84cb"/><path d="m127.304 88.01c-17.666-10.119-6.017-25.44-24.343-32.64-16.138-6.34-32.449-11.515-48.785-15.466-5.566-1.346-9.582 2.669-8.236 8.236 3.84 15.878 8.836 31.731 14.935 47.426z" fill="#615260"/><path d="m474.947 2.431c-3.318.802-4.635-.365-7.951.499-54.161 14.102-108.029 36.33-159.634 65.889l57.387 57.387 52.387 54.387 2 1c31.369-54.765 55.481-108.079 69.387-165.585 2.218-9.177-4.4-15.796-13.576-13.577z" fill="#5e9ad8"/><path d="m122.242 116.205 34.814-34.814c-17.667-10.119-35.774-18.807-54.1-26.007-15.901 11.283-30.08 24.832-42.068 40.177 7.302 18.79 16.171 37.355 26.541 55.458z" fill="#4e3d4d"/><path d="m476.947.431c-3.317.802-6.634 1.643-9.949 2.506 2.531 2.524 3.636 6.476 2.525 11.069-12.769 52.804-33.321 105.439-60.879 156.094l13.491 13.491c31.369-54.765 54.481-112.079 68.387-169.585 2.219-9.175-4.399-15.794-13.575-13.575z" fill="#3e84cb"/><path d="m442.814 39.904c-34.887 8.436-69.656 22.458-102.88 41.487l34.814 34.814 34.814 34.814c19.03-33.223 33.051-67.993 41.487-102.88 1.347-5.566-2.669-9.581-8.235-8.235z" fill="#615260"/><path d="m466.56 318.518c1.986 6.346-.234 13.256-5.544 17.258l-196.159 153.652c-9.16 8.095-21.565 9.712-31.373 2.852-.809-.566-1.594-1.183-2.35-1.852l-205.16-154.651c-5.31-4.003-7.53-10.912-5.544-17.258l26.992-86.278c.726-2.322 1.146-4.732 1.187-7.164.397-23.374 4.806-45.772 12.567-66.533l63.586-42.365 31.72-65.167c23.353-12.129 49.402-19.784 77.012-21.832 4.952-.367 9.954.446 15 .446 109.253 0 188.037 86.639 189.885 195.451.041 2.432.461 4.843 1.187 7.164z" fill="#eaf3ff"/><path d="m476.56 318.518-26.992-86.278c-.726-2.322-1.146-4.732-1.187-7.164-.397-23.373-3.403-46.349-12.566-66.53-11.168-24.596-96.924-77.197-182.709-77.197 0 0 134.118 12.346 157.176 90.577 4.979 16.894 7.787 34.718 8.1 53.15.041 2.432.461 4.843 1.187 7.164l26.992 86.278c1.986 6.346-.234 13.256-5.544 17.258l-205.16 154.652c-.757.669-1.551 1.269-2.361 1.836 9.807 6.858 23.203 6.258 32.361-1.836l205.159-154.651c5.31-4.003 7.529-10.913 5.544-17.259z" fill="#d5eaff"/><path d="m273.35 408.04c.338-5.645 2.788-11.169 3.342-16.574 13.703-133.546 91.491-194.69 133.153-219.296 13.887-8.202 19.761-13.344 21.908-14.755-28.404-75.818-97.524-127.79-183.258-127.79-5.046 0-10.048-.813-15-.446-79.186 5.874-145.525 57.88-172.259 129.235 8.575 5.633 140.305 54.809 158.959 232.069.602 5.718 3.086 11.569 3.444 17.557.853 14.249 10.58 23.405 24.855 23.405 14.276 0 24.003-9.156 24.856-23.405z" fill="#5e9ad8"/><path d="m248.495 28.624c-5.037 0-10.029.193-14.972.559 84.092 6.25 153.688 64.522 176.745 142.742 13.659-8.033 23.361-12.116 25.487-13.512-28.406-75.816-101.526-129.789-187.26-129.789z" fill="#3e84cb"/><path d="m220.288 391.467c.555 5.408 1.014 10.925 1.352 16.573.676 11.285 8.172 20.63 18.353 24.03 2.674.893 5.533.376 8.502.376 14.275 0 25.002-10.156 25.855-24.405.338-5.648-7.031-12.803-14.648-16.573h-39.414z" fill="#615260"/><path d="m259.702 391.467c-.555 5.408-1.014 10.925-1.352 16.573-.676 11.285-8.175 20.624-18.355 24.023 2.674.893 5.53 1.382 8.5 1.382 14.275 0 26.002-11.156 26.855-25.405.338-5.648.797-11.165 1.352-16.573z" fill="#4e3d4d"/><g><path d="m324.046 323.351c-1.251 0-2.518-.313-3.685-.973-3.605-2.039-4.876-6.614-2.837-10.22 18.025-31.879 48.878-40.634 50.182-40.991 3.996-1.092 8.121 1.259 9.214 5.254 1.091 3.987-1.25 8.104-5.231 9.207-.37.105-26.284 7.695-41.107 33.913-1.38 2.44-3.92 3.81-6.536 3.81z" fill="#615260"/></g><g><path d="m172.944 323.351c-2.616 0-5.156-1.371-6.536-3.81-14.855-26.273-40.849-33.84-41.109-33.913-3.977-1.119-6.314-5.247-5.209-9.229 1.105-3.981 5.209-6.321 9.194-5.232 1.305.357 32.157 9.112 50.182 40.991 2.039 3.606.768 8.181-2.837 10.22-1.166.66-2.434.973-3.685.973z" fill="#615260"/></g></g></svg>